HIERARCHY
ROOT Hips
{
	OFFSET 0.000000 0.000000 0.000000
	CHANNELS 6 Xposition Yposition Zposition Zrotation Yrotation Xrotation 
	JOINT LHipJoint
	{
		OFFSET 0.000000 0.000000 0.000000
		CHANNELS 3 Zrotation Yrotation Xrotation
		JOINT LeftUpLeg
		{
			OFFSET 1.363060 -1.794630 0.839290
			CHANNELS 3 Zrotation Yrotation Xrotation
			JOINT LeftLeg
			{
				OFFSET 2.448110 -6.726130 0.000000
				CHANNELS 3 Zrotation Yrotation Xrotation
				JOINT LeftFoot
				{
					OFFSET 2.562200 -7.039590 0.000000
					CHANNELS 3 Zrotation Yrotation Xrotation
					JOINT LeftToeBase
					{
						OFFSET 0.157640 -0.433110 2.322550
						CHANNELS 3 Zrotation Yrotation Xrotation
						End Site
						{
							OFFSET 0.000000 0.000000 0.000000
						}
					}
				}
			}
		}
	}
	JOINT RHipJoint
	{
		OFFSET 0.000000 0.000000 0.000000
		CHANNELS 3 Zrotation Yrotation Xrotation
		JOINT RightUpLeg
		{
			OFFSET -1.305520 -1.794630 0.839290
			CHANNELS 3 Zrotation Yrotation Xrotation
			JOINT RightLeg
			{
				OFFSET -2.542530 -6.985550 0.000000
				CHANNELS 3 Zrotation Yrotation Xrotation
				JOINT RightFoot
				{
					OFFSET -2.568260 -7.056230 0.000000
					CHANNELS 3 Zrotation Yrotation Xrotation
					JOINT RightToeBase
					{
						OFFSET -0.164730 -0.452590 2.363150
						CHANNELS 3 Zrotation Yrotation Xrotation
						End Site
						{
							OFFSET 0.000000 0.000000 0.000000
						}
					}
				}
			}
		}
	}
	JOINT LowerBack
	{
		OFFSET 0.000000 0.000000 0.000000
		CHANNELS 3 Zrotation Yrotation Xrotation
		JOINT Spine
		{
			OFFSET 0.028270 2.035590 -0.193380
			CHANNELS 3 Zrotation Yrotation Xrotation
			JOINT Spine1
			{
				OFFSET 0.056720 2.048850 -0.042750
				CHANNELS 3 Zrotation Yrotation Xrotation
				JOINT Neck
				{
					OFFSET 0.000000 0.000000 0.000000
					CHANNELS 3 Zrotation Yrotation Xrotation
					JOINT Neck1
					{
						OFFSET -0.054170 1.746240 0.172020
						CHANNELS 3 Zrotation Yrotation Xrotation
						JOINT Head
						{
							OFFSET 0.104070 1.761360 -0.123970
							CHANNELS 3 Zrotation Yrotation Xrotation
							End Site
							{
								OFFSET 0.000000 0.000000 0.000000
							}
						}
					}
				}
				JOINT LeftShoulder
				{
					OFFSET 0.000000 0.000000 0.000000
					CHANNELS 3 Zrotation Yrotation Xrotation
					JOINT LeftArm
					{
						OFFSET 3.362410 1.200890 -0.311210
						CHANNELS 3 Zrotation Yrotation Xrotation
						JOINT LeftForeArm
						{
							OFFSET 4.983000 -0.000000 -0.000000
							CHANNELS 3 Zrotation Yrotation Xrotation
							JOINT LeftHand
							{
								OFFSET 3.483560 -0.000000 -0.000000
								CHANNELS 3 Zrotation Yrotation Xrotation
								JOINT LeftFingerBase
								{
									OFFSET 0.000000 0.000000 0.000000
									CHANNELS 3 Zrotation Yrotation Xrotation
									JOINT LeftHandIndex1
									{
										OFFSET 0.715260 -0.000000 -0.000000
										CHANNELS 3 Zrotation Yrotation Xrotation
										End Site
										{
											OFFSET 0.000000 0.000000 0.000000
										}
									}
								}
								JOINT LThumb
								{
									OFFSET 0.000000 0.000000 0.000000
									CHANNELS 3 Zrotation Yrotation Xrotation
									End Site
									{
										OFFSET 0.000000 0.000000 0.000000
									}
								}
							}
						}
					}
				}
				JOINT RightShoulder
				{
					OFFSET 0.000000 0.000000 0.000000
					CHANNELS 3 Zrotation Yrotation Xrotation
					JOINT RightArm
					{
						OFFSET -3.136600 1.374050 -0.404650
						CHANNELS 3 Zrotation Yrotation Xrotation
						JOINT RightForeArm
						{
							OFFSET -5.241900 -0.000000 -0.000000
							CHANNELS 3 Zrotation Yrotation Xrotation
							JOINT RightHand
							{
								OFFSET -3.444170 -0.000000 -0.000000
								CHANNELS 3 Zrotation Yrotation Xrotation
								JOINT RightFingerBase
								{
									OFFSET 0.000000 0.000000 0.000000
									CHANNELS 3 Zrotation Yrotation Xrotation
									JOINT RightHandIndex1
									{
										OFFSET -0.622530 -0.000000 -0.000000
										CHANNELS 3 Zrotation Yrotation Xrotation
										End Site
										{
											OFFSET 0.000000 0.000000 0.000000
										}
									}
								}
								JOINT RThumb
								{
									OFFSET 0.000000 0.000000 0.000000
									CHANNELS 3 Zrotation Yrotation Xrotation
									End Site
									{
										OFFSET 0.000000 0.000000 0.000000
									}
								}
							}
						}
					}
				}
			}
		}
	}
}
MOTION
Frames: 12
Frame Time: 0.008333
-17.385628 15.859068 -2.080115 115.596333 89.570246 159.396704 -13.496490 2.619621 -1.179402 -1.277530 6.723705 -10.031377 -0.420206 0.243931 11.316072 1.194411 2.841199 28.575787 1.042400 0.000000 -71.218900 7.413214 -1.029007 5.807574 6.095954 10.205673 -82.357699 3.127867 -3.327028 35.214855 -0.055960 1.272770 -3.418265 -0.446800 0.000000 -37.867000 14.286918 -3.091614 -1.367099 2.799019 -3.818736 -3.119126 -4.927209 -3.980813 1.444840 8.786903 -5.400303 -3.554041 -2.359749 -0.211663 0.798905 0.000000 0.000000 0.000000 -5.015910 -0.634348 1.933104 -69.011918 -9.877819 15.472248 -2.408211 -32.266781 -0.011449 5.016540 -0.043033 -0.007908 -0.126244 0.147787 0.000000 0.000000 0.000000 0.000000 0.000000 0.000000 0.000000 10.056315 -6.467292 1.543129 57.895966 -9.835069 -1.997557 3.318931 30.234292 0.008751 5.402847 2.897562 0.137725 0.066875 -0.052378 -0.000000 0.000000 0.000000 0.000000 0.000000 0.000000 0.000000 
-17.155613 15.806431 -2.036033 103.754461 88.627332 147.525700 -13.972971 2.526998 -1.072923 -1.310152 6.424881 -10.361158 -0.266319 0.254679 12.872466 1.260181 2.940509 28.923465 1.071300 0.000000 -67.483000 7.058153 -1.152453 5.481518 5.947708 9.676937 -82.896310 2.829800 -3.686208 38.516153 -0.080945 1.466954 -4.563384 -0.357500 -0.000001 -34.864500 13.962258 -3.266588 -1.232069 2.721618 -3.967483 -3.101886 -4.961759 -4.131687 1.413266 9.166860 -5.237788 -3.584892 -2.438149 -0.216368 0.783633 0.000000 0.000000 0.000000 -5.094045 -0.845443 1.997062 -68.349656 -9.388942 15.321944 -2.400113 -32.406977 -0.011524 4.957141 0.162869 0.001482 -0.125462 0.144968 0.000000 0.000000 0.000000 0.000000 0.000000 0.000000 0.000000 10.825912 -6.441972 1.549058 57.122859 -9.261930 -1.918469 3.319577 29.884008 0.008315 5.443100 2.724106 0.130617 0.065104 -0.050547 -0.000000 0.000000 0.000000 0.000000 0.000000 0.000000 0.000000 
-16.930081 15.759764 -1.994944 79.299370 87.689831 123.051343 -14.850807 2.523960 -0.942245 -1.529149 6.322827 -10.858501 -0.176809 0.322407 14.582133 1.382248 3.282284 29.001393 1.196500 0.000000 -63.593500 6.401903 -1.050979 5.002495 5.934124 9.310070 -83.208381 2.541793 -3.895352 41.803437 -0.089677 1.737344 -5.905250 -0.269600 -0.000001 -32.559399 13.142401 -3.283403 -0.939297 2.492294 -3.932381 -3.052253 -5.008199 -4.096210 1.383487 9.594804 -4.991970 -3.583186 -2.538093 -0.222565 0.774192 0.000000 0.000000 0.000000 -5.219144 -0.944966 2.032371 -67.610082 -8.945191 15.222808 -2.386671 -32.664277 -0.011498 4.912915 0.348580 0.009767 -0.124407 0.140961 0.000000 0.000000 0.000000 0.000000 0.000000 0.000000 0.000000 11.741356 -6.273290 1.565898 56.265314 -8.512625 -1.891157 3.329812 29.365131 0.007997 5.509391 2.580632 0.125314 0.063277 -0.049231 -0.000000 0.000000 0.000000 0.000000 0.000000 0.000000 0.000000 
-16.708911 15.720340 -1.957066 52.341654 87.232401 96.127412 -15.350023 2.712843 -0.855556 -1.614561 6.432365 -11.524162 -0.234361 0.475068 16.442526 1.552837 3.892477 28.795726 1.439200 0.000000 -59.814201 6.057666 -0.419118 4.431637 6.280096 9.348097 -83.173649 2.295509 -3.998520 44.808601 -0.112803 1.991464 -7.382789 -0.189800 0.000000 -31.081800 12.728472 -3.003236 -0.454106 2.299058 -3.617187 -2.949875 -5.120760 -3.778878 1.349966 10.052391 -4.653449 -3.542208 -2.663214 -0.230478 0.773113 0.000000 0.000000 0.000000 -5.414752 -0.885238 2.032466 -66.819329 -8.543834 15.150541 -2.347360 -33.027310 -0.011414 4.904621 0.503199 0.016744 -0.121316 0.136065 0.000000 0.000000 0.000000 0.000000 0.000000 0.000000 0.000000 12.763590 -5.894351 1.601291 55.309021 -7.547832 -1.961481 3.365631 28.636303 0.007888 5.597947 2.487746 0.122817 0.062624 -0.048621 -0.000000 0.000000 0.000000 0.000000 0.000000 0.000000 0.000000 
-16.492106 15.689055 -1.922284 40.601996 87.168404 84.355218 -15.403396 2.769530 -0.866574 -1.436705 6.619067 -12.255146 -0.263491 0.587418 18.562942 1.677967 4.689675 28.367366 1.806400 -0.000000 -56.320400 6.025722 0.011633 3.980750 6.835349 9.286409 -82.965657 2.131290 -4.154828 47.390256 -0.175972 2.164252 -9.032934 -0.120100 -0.000000 -30.455200 12.923299 -2.821315 0.016689 2.262294 -3.422125 -2.846324 -5.271268 -3.585077 1.312618 10.549735 -4.209571 -3.454178 -2.807408 -0.240016 0.784820 0.000000 0.000000 0.000000 -5.683529 -0.882184 2.050174 -66.011184 -8.210587 15.110049 -2.303386 -33.451619 -0.011475 4.945210 0.616915 0.022027 -0.118139 0.132871 0.000000 0.000000 0.000000 0.000000 0.000000 0.000000 0.000000 13.874984 -5.494500 1.619968 54.255027 -6.438835 -2.210390 3.411763 27.681891 0.007803 5.691801 2.459300 0.123514 0.062274 -0.047466 -0.000000 0.000000 0.000000 0.000000 0.000000 0.000000 0.000000 
-16.279109 15.666352 -1.890145 39.810696 87.250502 83.452532 -15.470165 2.647262 -0.937238 -1.185194 6.863524 -13.045492 -0.219356 0.651623 20.900050 1.771938 5.685230 27.727207 2.286900 0.000000 -53.099400 5.946137 0.089232 3.617073 7.451191 9.052316 -82.609076 2.035824 -4.323235 49.556481 -0.256859 2.307779 -10.770808 -0.060000 0.000000 -30.615400 13.191564 -2.796305 0.449716 2.269024 -3.380911 -2.753478 -5.425601 -3.547667 1.277267 11.081239 -3.663628 -3.318398 -2.964889 -0.250743 0.809152 0.000000 0.000000 0.000000 -5.997447 -0.954519 2.084637 -65.190573 -7.931591 15.086473 -2.264469 -33.931236 -0.011657 5.041269 0.676766 0.025218 -0.115888 0.131117 0.000000 0.000000 0.000000 0.000000 0.000000 0.000000 0.000000 15.065175 -5.101845 1.620328 53.137358 -5.181631 -2.669198 3.456917 26.464754 0.007725 5.743491 2.507081 0.126909 0.061966 -0.045983 -0.000000 0.000000 0.000000 0.000000 0.000000 0.000000 0.000000 
-16.069610 15.652247 -1.859939 43.516356 87.399322 86.998968 -15.569159 2.419129 -1.047889 -0.906553 7.151658 -13.894357 -0.137635 0.696152 23.380755 1.862047 6.896561 26.883799 2.865400 -0.000000 -50.281900 5.819305 -0.024429 3.297263 8.128597 8.766721 -82.055712 1.998010 -4.470450 51.290597 -0.344114 2.444187 -12.507352 -0.008300 -0.000000 -31.419400 13.466388 -2.841158 0.878112 2.286807 -3.404423 -2.663322 -5.584770 -3.576157 1.244874 11.627876 -3.007692 -3.132585 -3.132233 -0.262315 0.846505 0.000000 0.000000 0.000000 -6.336920 -1.048504 2.123929 -64.368694 -7.695861 15.077215 -2.227115 -34.452279 -0.011906 5.196394 0.670866 0.025714 -0.114263 0.130217 0.000000 0.000000 0.000000 0.000000 0.000000 0.000000 0.000000 16.301195 -4.662572 1.610685 52.000292 -3.776686 -3.411989 3.498985 24.962654 0.007681 5.712493 2.621031 0.131803 0.062074 -0.044627 -0.000000 0.000000 0.000000 0.000000 0.000000 0.000000 0.000000 
-15.863106 15.646457 -1.830633 48.573199 87.602372 91.866723 -15.644638 2.134130 -1.188786 -0.611089 7.456680 -14.793119 -0.044548 0.738333 25.957097 1.959924 8.298236 25.841090 3.508900 -0.000000 -47.895900 5.697255 -0.222519 3.006592 8.860663 8.495221 -81.286085 2.009477 -4.587172 52.589206 -0.432207 2.579832 -14.175910 0.035600 0.000000 -32.663500 13.770520 -2.906234 1.314204 2.312229 -3.444685 -2.572537 -5.749962 -3.622102 1.213097 12.172208 -2.230920 -2.892070 -3.305154 -0.274394 0.898441 0.000000 0.000000 0.000000 -6.679495 -1.143298 2.162866 -63.565502 -7.484800 15.075898 -2.189409 -34.997066 -0.012179 5.405669 0.591324 0.022813 -0.112980 0.129881 0.000000 0.000000 0.000000 0.000000 0.000000 0.000000 0.000000 17.545895 -4.137810 1.596273 50.887559 -2.255643 -4.522145 3.532379 23.179117 0.007661 5.550418 2.779031 0.135497 0.062809 -0.043721 -0.000000 0.000000 0.000000 0.000000 0.000000 0.000000 0.000000 
-15.658878 15.648318 -1.801204 53.672945 87.848082 96.758787 -15.672011 1.823495 -1.350780 -0.318729 7.747925 -15.736059 0.044713 0.789224 28.595550 2.069279 9.836336 24.597903 4.170600 -0.000000 -45.870300 5.603718 -0.446338 2.739534 9.616252 8.264045 -80.307025 2.059888 -4.668862 53.475199 -0.516991 2.716361 -15.726430 0.071700 -0.000000 -34.104400 14.092678 -2.969003 1.757144 2.340649 -3.479795 -2.479648 -5.917221 -3.663323 1.185150 12.698632 -1.362544 -2.602501 -3.477994 -0.286488 0.963684 0.000000 0.000000 0.000000 -6.998444 -1.227563 2.196497 -62.805213 -7.288858 15.077449 -2.151475 -35.543663 -0.012426 5.656432 0.434017 0.015914 -0.111902 0.129888 0.000000 0.000000 0.000000 0.000000 0.000000 0.000000 0.000000 18.765446 -3.542705 1.580168 49.831550 -0.607210 -6.018337 3.547904 21.111564 0.007637 5.181070 2.966753 0.134690 0.064273 -0.043597 -0.000000 0.000000 0.000000 0.000000 0.000000 0.000000 0.000000 
-15.456236 15.657032 -1.770564 58.377494 88.118483 101.246837 -15.647147 1.508035 -1.523612 -0.056594 7.992270 -16.723828 0.123263 0.855198 31.271346 2.189630 11.443411 23.158216 4.797800 0.000000 -44.150600 5.545429 -0.664515 2.495967 10.352173 8.079033 -79.145939 2.137493 -4.713852 53.990609 -0.595888 2.849528 -17.123786 0.100000 -0.000000 -35.498100 14.400968 -3.020305 2.196277 2.365740 -3.501203 -2.385893 -6.080177 -3.691031 1.163537 13.193611 -0.431575 -2.271559 -3.645316 -0.298162 1.040504 0.000000 0.000000 0.000000 -7.268040 -1.296943 2.222363 -62.111321 -7.101768 15.080380 -2.115036 -36.068822 -0.012599 5.929319 0.200587 0.004316 -0.110991 0.130080 0.000000 0.000000 0.000000 0.000000 0.000000 0.000000 0.000000 19.930697 -2.896350 1.564560 48.861195 1.161431 -7.909886 3.533210 18.794089 0.007538 4.528284 3.165702 0.125283 0.066297 -0.044554 -0.000000 0.000000 0.000000 0.000000 0.000000 0.000000 0.000000 
-15.254887 15.671730 -1.737771 62.639709 88.393690 105.293147 -15.572504 1.202425 -1.696160 0.147607 8.158222 -17.765070 0.189759 0.938836 33.968504 2.317549 13.045865 21.527809 5.337900 -0.000000 -42.666700 5.524044 -0.860687 2.280169 11.023819 7.938757 -77.843624 2.230160 -4.723275 54.189077 -0.668205 2.968506 -18.347540 0.121400 -0.000000 -36.644100 14.663072 -3.056231 2.612859 2.382253 -3.506454 -2.297756 -6.231453 -3.702744 1.139981 13.643881 0.594034 -1.892748 -3.801014 -0.309132 1.131407 0.000000 0.000000 0.000000 -7.468672 -1.360156 2.245223 -61.501817 -6.902925 15.086560 -2.083360 -36.554575 -0.012656 6.199573 -0.099611 -0.012080 -0.110304 0.130413 0.000000 0.000000 0.000000 0.000000 0.000000 0.000000 0.000000 21.002246 -2.151936 1.552437 48.026735 2.925330 -10.288951 3.473267 16.349633 0.007225 3.553695 3.342468 0.103375 0.068311 -0.046809 -0.000000 0.000000 0.000000 0.000000 0.000000 0.000000 0.000000 
-15.053844 15.691501 -1.702190 66.553684 88.657652 109.007908 -15.450764 0.915968 -1.859306 0.271432 8.219798 -18.879653 0.245553 1.040294 36.678064 2.447938 14.572339 19.712600 5.743100 0.000000 -41.316001 5.540740 -1.025785 2.097303 11.595103 7.843554 -76.451693 2.326883 -4.700534 54.128118 -0.735284 3.056720 -19.391649 0.138700 0.000000 -37.414100 14.853278 -3.075051 2.989588 2.386575 -3.495767 -2.214715 -6.365595 -3.698051 1.127562 14.041808 1.608250 -1.497578 -3.941526 -0.319007 1.227801 0.000000 0.000000 0.000000 -7.578827 -1.409427 2.258005 -60.999456 -6.704430 15.089611 -2.057428 -36.981377 -0.012540 6.437771 -0.455415 -0.032873 -0.109769 0.130749 0.000000 0.000000 0.000000 0.000000 0.000000 0.000000 0.000000 21.972410 -1.410651 1.545499 47.316504 4.762208 -12.929048 3.359219 13.850057 0.006531 2.155562 3.517190 0.065161 0.070368 -0.050431 -0.000000 0.000000 0.000000 0.000000 0.000000 0.000000 0.000000 
